# xmcd
#
# Track frame offsets:
#	150
#	16157
#	30836
#	51251
#	70379
#	88410
#	105868
#	125524
#	142475
#	156350
#	170313
#	189014
#	205424
#	219971
#	238404
#	256718
#	272880
#	288348
#	305222
#	320350
#
# Disc length: 4533 seconds
#
# Revision: 1
# Processed by: cddbd v1.5.2PL0 Copyright (c) Steve Scherf et al.
# Submitted via: EasyCDDAExtractor 15.2.5.1
#
DISCID=2611b314
DTITLE=Various Artist - Hit Country #1s [CD 2)
DYEAR=2011
DGENRE=Country
TTITLE0=Leave The Pieces - The Wreckers
TTITLE1=This Kiss - Faith Hill
TTITLE2=Back When - Tim McGraw
TTITLE3=Don't Blink - Kenny Chesney
TTITLE4=I Still Believe In You - Vince Gill
TTITLE5=Home - Blake Shelton
TTITLE6=Prodigal Son - Graeme Connors
TTITLE7=Swinging Door - Catherine Britt
TTITLE8=A Good Man - Emerson Drive
TTITLE9=Look It Up - Jasmine Rae
TTITLE10=Two Sparrows In A Hurricane - Tanya Tucker
TTITLE11=If You're Goinf Through Hell (Before The Devil Even Knows) - Rodney A
TTITLE11=tkins
TTITLE12=Humm - Peter McWhirter
TTITLE13=She's In Love With The Boy - Trisha Yearwood
TTITLE14=The World - Brad Paisley
TTITLE15=Want To - Sugarland
TTITLE16=Achy Breaky Heart - Billy Ray Cyrus
TTITLE17=Real People - Melinda Schneider
TTITLE18=Good Girls - Amber Lawrence
TTITLE19=65 Roses - The Wolverines
EXTD=YEAR: 2011
EXTT0=
EXTT1=
EXTT2=
EXTT3=
EXTT4=
EXTT5=
EXTT6=
EXTT7=
EXTT8=
EXTT9=
EXTT10=
EXTT11=
EXTT12=
EXTT13=
EXTT14=
EXTT15=
EXTT16=
EXTT17=
EXTT18=
EXTT19=
PLAYORDER=
